<svg xmlns="http://www.w3.org/2000/svg" viewBox="0 0 1200 900">
  <defs>
    <linearGradient id="bg" x1="0" y1="0" x2="0" y2="1">
      <stop offset="0%" stop-color="#0a0e27"/>
      <stop offset="100%" stop-color="#141832"/>
    </linearGradient>
    <linearGradient id="headerCore" x1="0" y1="0" x2="1" y2="1">
      <stop offset="0%" stop-color="#6366f1"/>
      <stop offset="100%" stop-color="#818cf8"/>
    </linearGradient>
    <linearGradient id="headerAgent" x1="0" y1="0" x2="1" y2="1">
      <stop offset="0%" stop-color="#10b981"/>
      <stop offset="100%" stop-color="#34d399"/>
    </linearGradient>
    <linearGradient id="headerComm" x1="0" y1="0" x2="1" y2="1">
      <stop offset="0%" stop-color="#f59e0b"/>
      <stop offset="100%" stop-color="#fbbf24"/>
    </linearGradient>
    <linearGradient id="headerWork" x1="0" y1="0" x2="1" y2="1">
      <stop offset="0%" stop-color="#ec4899"/>
      <stop offset="100%" stop-color="#f472b6"/>
    </linearGradient>
    <linearGradient id="headerMrkt" x1="0" y1="0" x2="1" y2="1">
      <stop offset="0%" stop-color="#8b5cf6"/>
      <stop offset="100%" stop-color="#a78bfa"/>
    </linearGradient>
    <filter id="shadow">
      <feDropShadow dx="0" dy="2" stdDeviation="4" flood-color="#000" flood-opacity="0.4"/>
    </filter>
    <filter id="glow">
      <feGaussianBlur stdDeviation="2" result="blur"/>
      <feMerge><feMergeNode in="blur"/><feMergeNode in="SourceGraphic"/></feMerge>
    </filter>
    <marker id="arrow1" markerWidth="10" markerHeight="7" refX="10" refY="3.5" orient="auto">
      <polygon points="0 0, 10 3.5, 0 7" fill="#6366f1"/>
    </marker>
    <marker id="arrow1N" markerWidth="10" markerHeight="7" refX="0" refY="3.5" orient="auto">
      <polygon points="10 0, 0 3.5, 10 7" fill="#6366f1"/>
    </marker>
  </defs>

  <!-- Background -->
  <rect width="1200" height="900" fill="url(#bg)"/>

  <pattern id="grid" width="40" height="40" patternUnits="userSpaceOnUse">
    <path d="M 40 0 L 0 0 0 40" fill="none" stroke="#1e2448" stroke-width="0.5"/>
  </pattern>
  <rect width="1200" height="900" fill="url(#grid)" opacity="0.5"/>

  <!-- Title -->
  <text x="600" y="35" text-anchor="middle" fill="#e2e8f0" font-family="monospace" font-size="20" font-weight="bold" letter-spacing="2">AGENTFORGE DATABASE ER DIAGRAM</text>
  <line x1="300" y1="45" x2="900" y2="45" stroke="#6366f1" stroke-width="1" opacity="0.5"/>

  <!-- ===================== USERS TABLE (left column) ===================== -->
  <rect x="40" y="65" width="220" height="130" rx="8" fill="#1a1f3a" stroke="#6366f1" stroke-width="1.5" filter="url(#shadow)"/>
  <rect x="40" y="65" width="220" height="28" rx="8" fill="url(#headerCore)"/>
  <rect x="40" y="85" width="220" height="8" fill="url(#headerCore)"/>
  <text x="150" y="83" text-anchor="middle" fill="#fff" font-family="monospace" font-size="12" font-weight="bold">👤 Users</text>
  <line x1="40" y1="93" x2="260" y2="93" stroke="#2a2f4a" stroke-width="1"/>
  <text x="55" y="110" fill="#94a3b8" font-family="monospace" font-size="10">PK id UUID</text>
  <text x="55" y="125" fill="#94a3b8" font-family="monospace" font-size="10">email VARCHAR</text>
  <text x="55" y="140" fill="#94a3b8" font-family="monospace" font-size="10">name VARCHAR</text>
  <text x="55" y="155" fill="#94a3b8" font-family="monospace" font-size="10">password_hash VARCHAR</text>
  <text x="55" y="170" fill="#94a3b8" font-family="monospace" font-size="10">role ENUM</text>
  <text x="55" y="185" fill="#94a3b8" font-family="monospace" font-size="10">created_at TIMESTAMP</text>

  <!-- ===================== AGENTS TABLE (center top) ===================== -->
  <rect x="360" y="65" width="220" height="145" rx="8" fill="#1a1f3a" stroke="#10b981" stroke-width="1.5" filter="url(#shadow)"/>
  <rect x="360" y="65" width="220" height="28" rx="8" fill="url(#headerAgent)"/>
  <rect x="360" y="85" width="220" height="8" fill="url(#headerAgent)"/>
  <text x="470" y="83" text-anchor="middle" fill="#fff" font-family="monospace" font-size="12" font-weight="bold">🤖 Agents</text>
  <line x1="360" y1="93" x2="580" y2="93" stroke="#1e2448" stroke-width="1"/>
  <text x="375" y="110" fill="#94a3b8" font-family="monospace" font-size="10">PK id UUID</text>
  <text x="375" y="125" fill="#94a3b8" font-family="monospace" font-size="10">FK user_id UUID</text>
  <text x="375" y="140" fill="#94a3b8" font-family="monospace" font-size="10">name VARCHAR</text>
  <text x="375" y="155" fill="#94a3b8" font-family="monospace" font-size="10">system_prompt TEXT</text>
  <text x="375" y="170" fill="#94a3b8" font-family="monospace" font-size="10">model VARCHAR</text>
  <text x="375" y="185" fill="#94a3b8" font-family="monospace" font-size="10">temperature FLOAT</text>
  <text x="375" y="200" fill="#94a3b8" font-family="monospace" font-size="10">status ENUM</text>

  <!-- Users 1---N Agents -->
  <line x1="260" y1="110" x2="360" y2="125" stroke="#6366f1" stroke-width="2" marker-end="url(#arrow1)"/>
  <text x="295" y="103" fill="#f59e0b" font-family="monospace" font-size="9" font-weight="bold">1</text>
  <text x="318" y="133" fill="#f59e0b" font-family="monospace" font-size="9" font-weight="bold">N</text>

  <!-- ===================== TEAMS TABLE (left below) ===================== -->
  <rect x="40" y="220" width="220" height="130" rx="8" fill="#1a1f3a" stroke="#6366f1" stroke-width="1.5" filter="url(#shadow)"/>
  <rect x="40" y="220" width="220" height="28" rx="8" fill="url(#headerCore)"/>
  <rect x="40" y="240" width="220" height="8" fill="url(#headerCore)"/>
  <text x="150" y="238" text-anchor="middle" fill="#fff" font-family="monospace" font-size="12" font-weight="bold">👥 Teams</text>
  <line x1="40" y1="248" x2="260" y2="248" stroke="#2a2f4a" stroke-width="1"/>
  <text x="55" y="265" fill="#94a3b8" font-family="monospace" font-size="10">PK id UUID</text>
  <text x="55" y="280" fill="#94a3b8" font-family="monospace" font-size="10">FK owner_id UUID</text>
  <text x="55" y="295" fill="#94a3b8" font-family="monospace" font-size="10">name VARCHAR</text>
  <text x="55" y="310" fill="#94a3b8" font-family="monospace" font-size="10">description TEXT</text>
  <text x="55" y="325" fill="#94a3b8" font-family="monospace" font-size="10">created_at TIMESTAMP</text>
  <text x="55" y="340" fill="#94a3b8" font-family="monospace" font-size="10">updated_at TIMESTAMP</text>

  <!-- Users 1---N Teams -->
  <line x1="150" y1="195" x2="150" y2="220" stroke="#6366f1" stroke-width="2" marker-end="url(#arrow1)"/>
  <text x="132" y="202" fill="#f59e0b" font-family="monospace" font-size="9" font-weight="bold">1</text>
  <text x="157" y="226" fill="#f59e0b" font-family="monospace" font-size="9" font-weight="bold">N</text>

  <!-- ===================== TEAM_MEMBERS TABLE ===================== -->
  <rect x="40" y="380" width="220" height="100" rx="8" fill="#1a1f3a" stroke="#6366f1" stroke-width="1.5" filter="url(#shadow)"/>
  <rect x="40" y="380" width="220" height="28" rx="8" fill="url(#headerCore)"/>
  <rect x="40" y="400" width="220" height="8" fill="url(#headerCore)"/>
  <text x="150" y="398" text-anchor="middle" fill="#fff" font-family="monospace" font-size="11" font-weight="bold">👤 TeamMembers</text>
  <line x1="40" y1="408" x2="260" y2="408" stroke="#2a2f4a" stroke-width="1"/>
  <text x="55" y="425" fill="#94a3b8" font-family="monospace" font-size="10">PK id UUID</text>
  <text x="55" y="440" fill="#94a3b8" font-family="monospace" font-size="10">FK team_id UUID</text>
  <text x="55" y="455" fill="#94a3b8" font-family="monospace" font-size="10">FK user_id UUID</text>
  <text x="55" y="470" fill="#94a3b8" font-family="monospace" font-size="10">role ENUM</text>

  <!-- Teams 1---N TeamMembers -->
  <line x1="150" y1="350" x2="150" y2="380" stroke="#6366f1" stroke-width="2" marker-end="url(#arrow1)"/>
  <text x="132" y="360" fill="#f59e0b" font-family="monospace" font-size="9" font-weight="bold">1</text>
  <text x="157" y="387" fill="#f59e0b" font-family="monospace" font-size="9" font-weight="bold">N</text>

  <!-- ===================== AGENT_VERSIONS TABLE ===================== -->
  <rect x="360" y="235" width="220" height="100" rx="8" fill="#1a1f3a" stroke="#10b981" stroke-width="1.5" filter="url(#shadow)"/>
  <rect x="360" y="235" width="220" height="28" rx="8" fill="url(#headerAgent)"/>
  <rect x="360" y="255" width="220" height="8" fill="url(#headerAgent)"/>
  <text x="470" y="253" text-anchor="middle" fill="#fff" font-family="monospace" font-size="11" font-weight="bold">📋 AgentVersions</text>
  <line x1="360" y1="263" x2="580" y2="263" stroke="#1e2448" stroke-width="1"/>
  <text x="375" y="280" fill="#94a3b8" font-family="monospace" font-size="10">PK id UUID</text>
  <text x="375" y="295" fill="#94a3b8" font-family="monospace" font-size="10">FK agent_id UUID</text>
  <text x="375" y="310" fill="#94a3b8" font-family="monospace" font-size="10">version INT</text>
  <text x="375" y="325" fill="#94a3b8" font-family="monospace" font-size="10">config JSONB</text>

  <!-- Agents 1---N AgentVersions -->
  <line x1="470" y1="210" x2="470" y2="235" stroke="#10b981" stroke-width="2" marker-end="url(#arrow1)"/>
  <text x="452" y="217" fill="#f59e0b" font-family="monospace" font-size="9" font-weight="bold">1</text>
  <text x="477" y="242" fill="#f59e0b" font-family="monospace" font-size="9" font-weight="bold">N</text>

  <!-- ===================== AGENT_MEMORY TABLE ===================== -->
  <rect x="360" y="360" width="220" height="100" rx="8" fill="#1a1f3a" stroke="#10b981" stroke-width="1.5" filter="url(#shadow)"/>
  <rect x="360" y="360" width="220" height="28" rx="8" fill="url(#headerAgent)"/>
  <rect x="360" y="380" width="220" height="8" fill="url(#headerAgent)"/>
  <text x="470" y="378" text-anchor="middle" fill="#fff" font-family="monospace" font-size="11" font-weight="bold">🧠 AgentMemory</text>
  <line x1="360" y1="388" x2="580" y2="388" stroke="#1e2448" stroke-width="1"/>
  <text x="375" y="405" fill="#94a3b8" font-family="monospace" font-size="10">PK id UUID</text>
  <text x="375" y="420" fill="#94a3b8" font-family="monospace" font-size="10">FK agent_id UUID</text>
  <text x="375" y="435" fill="#94a3b8" font-family="monospace" font-size="10">key VARCHAR</text>
  <text x="375" y="450" fill="#94a3b8" font-family="monospace" font-size="10">value TEXT / vector</text>

  <!-- Agents 1---N AgentMemory -->
  <line x1="470" y1="210" x2="470" y2="360" stroke="#10b981" stroke-width="2" marker-end="url(#arrow1)"/>
  <text x="452" y="310" fill="#f59e0b" font-family="monospace" font-size="9" font-weight="bold">1</text>
  <text x="477" y="367" fill="#f59e0b" font-family="monospace" font-size="9" font-weight="bold">N</text>

  <!-- ===================== CONVERSATIONS TABLE ===================== -->
  <rect x="610" y="65" width="220" height="115" rx="8" fill="#1a1f3a" stroke="#f59e0b" stroke-width="1.5" filter="url(#shadow)"/>
  <rect x="610" y="65" width="220" height="28" rx="8" fill="url(#headerComm)"/>
  <rect x="610" y="85" width="220" height="8" fill="url(#headerComm)"/>
  <text x="720" y="83" text-anchor="middle" fill="#fff" font-family="monospace" font-size="12" font-weight="bold">💬 Conversations</text>
  <line x1="610" y1="93" x2="830" y2="93" stroke="#1e2448" stroke-width="1"/>
  <text x="625" y="110" fill="#94a3b8" font-family="monospace" font-size="10">PK id UUID</text>
  <text x="625" y="125" fill="#94a3b8" font-family="monospace" font-size="10">FK agent_id UUID</text>
  <text x="625" y="140" fill="#94a3b8" font-family="monospace" font-size="10">title VARCHAR</text>
  <text x="625" y="155" fill="#94a3b8" font-family="monospace" font-size="10">created_at TIMESTAMP</text>
  <text x="625" y="170" fill="#94a3b8" font-family="monospace" font-size="10">updated_at TIMESTAMP</text>

  <!-- Agents 1---N Conversations -->
  <line x1="580" y1="115" x2="610" y2="110" stroke="#10b981" stroke-width="2" marker-end="url(#arrow1)"/>
  <text x="592" y="103" fill="#f59e0b" font-family="monospace" font-size="9" font-weight="bold">1</text>
  <text x="613" y="118" fill="#f59e0b" font-family="monospace" font-size="9" font-weight="bold">N</text>

  <!-- ===================== MESSAGES TABLE ===================== -->
  <rect x="610" y="205" width="220" height="115" rx="8" fill="#1a1f3a" stroke="#f59e0b" stroke-width="1.5" filter="url(#shadow)"/>
  <rect x="610" y="205" width="220" height="28" rx="8" fill="url(#headerComm)"/>
  <rect x="610" y="225" width="220" height="8" fill="url(#headerComm)"/>
  <text x="720" y="223" text-anchor="middle" fill="#fff" font-family="monospace" font-size="12" font-weight="bold">💬 Messages</text>
  <line x1="610" y1="233" x2="830" y2="233" stroke="#1e2448" stroke-width="1"/>
  <text x="625" y="250" fill="#94a3b8" font-family="monospace" font-size="10">PK id UUID</text>
  <text x="625" y="265" fill="#94a3b8" font-family="monospace" font-size="10">FK conversation_id UUID</text>
  <text x="625" y="280" fill="#94a3b8" font-family="monospace" font-size="10">role ENUM</text>
  <text x="625" y="295" fill="#94a3b8" font-family="monospace" font-size="10">content TEXT</text>
  <text x="625" y="310" fill="#94a3b8" font-family="monospace" font-size="10">created_at TIMESTAMP</text>

  <!-- Conversations 1---N Messages -->
  <line x1="720" y1="180" x2="720" y2="205" stroke="#f59e0b" stroke-width="2" marker-end="url(#arrow1)"/>
  <text x="702" y="187" fill="#f59e0b" font-family="monospace" font-size="9" font-weight="bold">1</text>
  <text x="727" y="212" fill="#f59e0b" font-family="monospace" font-size="9" font-weight="bold">N</text>

  <!-- ===================== EXECUTIONS TABLE ===================== -->
  <rect x="360" y="490" width="220" height="100" rx="8" fill="#1a1f3a" stroke="#10b981" stroke-width="1.5" filter="url(#shadow)"/>
  <rect x="360" y="490" width="220" height="28" rx="8" fill="url(#headerAgent)"/>
  <rect x="360" y="510" width="220" height="8" fill="url(#headerAgent)"/>
  <text x="470" y="508" text-anchor="middle" fill="#fff" font-family="monospace" font-size="11" font-weight="bold">⚡ Executions</text>
  <line x1="360" y1="518" x2="580" y2="518" stroke="#1e2448" stroke-width="1"/>
  <text x="375" y="535" fill="#94a3b8" font-family="monospace" font-size="10">PK id UUID</text>
  <text x="375" y="550" fill="#94a3b8" font-family="monospace" font-size="10">FK agent_id UUID</text>
  <text x="375" y="565" fill="#94a3b8" font-family="monospace" font-size="10">status ENUM</text>
  <text x="375" y="580" fill="#94a3b8" font-family="monospace" font-size="10">result JSONB</text>

  <!-- Agents 1---N Executions -->
  <line x1="470" y1="210" x2="470" y2="490" stroke="#10b981" stroke-width="2" marker-end="url(#arrow1)"/>
  <text x="452" y="435" fill="#f59e0b" font-family="monospace" font-size="9" font-weight="bold">1</text>
  <text x="477" y="497" fill="#f59e0b" font-family="monospace" font-size="9" font-weight="bold">N</text>

  <!-- ===================== TOOLS TABLE ===================== -->
  <rect x="610" y="345" width="220" height="100" rx="8" fill="#1a1f3a" stroke="#f59e0b" stroke-width="1.5" filter="url(#shadow)"/>
  <rect x="610" y="345" width="220" height="28" rx="8" fill="url(#headerComm)"/>
  <rect x="610" y="365" width="220" height="8" fill="url(#headerComm)"/>
  <text x="720" y="363" text-anchor="middle" fill="#fff" font-family="monospace" font-size="12" font-weight="bold">🔧 Tools</text>
  <line x1="610" y1="373" x2="830" y2="373" stroke="#1e2448" stroke-width="1"/>
  <text x="625" y="390" fill="#94a3b8" font-family="monospace" font-size="10">PK id UUID</text>
  <text x="625" y="405" fill="#94a3b8" font-family="monospace" font-size="10">name VARCHAR</text>
  <text x="625" y="420" fill="#94a3b8" font-family="monospace" font-size="10">description TEXT</text>
  <text x="625" y="435" fill="#94a3b8" font-family="monospace" font-size="10">schema JSONB</text>

  <!-- ===================== AGENT_TOOLS TABLE (N:M) ===================== -->
  <rect x="610" y="470" width="220" height="85" rx="8" fill="#1a1f3a" stroke="#f59e0b" stroke-width="1.5" filter="url(#shadow)"/>
  <rect x="610" y="470" width="220" height="28" rx="8" fill="url(#headerComm)"/>
  <rect x="610" y="490" width="220" height="8" fill="url(#headerComm)"/>
  <text x="720" y="488" text-anchor="middle" fill="#fff" font-family="monospace" font-size="11" font-weight="bold">🔗 AgentTools</text>
  <line x1="610" y1="498" x2="830" y2="498" stroke="#1e2448" stroke-width="1"/>
  <text x="625" y="515" fill="#94a3b8" font-family="monospace" font-size="10">PK id UUID</text>
  <text x="625" y="530" fill="#94a3b8" font-family="monospace" font-size="10">FK agent_id UUID</text>
  <text x="625" y="545" fill="#94a3b8" font-family="monospace" font-size="10">FK tool_id UUID</text>

  <!-- Agents 1---N AgentTools -->
  <line x1="580" y1="520" x2="610" y2="520" stroke="#10b981" stroke-width="2" marker-end="url(#arrow1)"/>
  <text x="592" y="512" fill="#f59e0b" font-family="monospace" font-size="9" font-weight="bold">1</text>
  <text x="613" y="528" fill="#f59e0b" font-family="monospace" font-size="9" font-weight="bold">N</text>

  <!-- Tools 1---N AgentTools -->
  <line x1="720" y1="445" x2="720" y2="470" stroke="#f59e0b" stroke-width="2" marker-end="url(#arrow1)"/>
  <text x="702" y="452" fill="#f59e0b" font-family="monospace" font-size="9" font-weight="bold">1</text>
  <text x="727" y="477" fill="#f59e0b" font-family="monospace" font-size="9" font-weight="bold">N</text>

  <!-- ===================== WORKFLOWS TABLE (right column) ===================== -->
  <rect x="940" y="65" width="220" height="100" rx="8" fill="#1a1f3a" stroke="#ec4899" stroke-width="1.5" filter="url(#shadow)"/>
  <rect x="940" y="65" width="220" height="28" rx="8" fill="url(#headerWork)"/>
  <rect x="940" y="85" width="220" height="8" fill="url(#headerWork)"/>
  <text x="1050" y="83" text-anchor="middle" fill="#fff" font-family="monospace" font-size="12" font-weight="bold">⚙️ Workflows</text>
  <line x1="940" y1="93" x2="1160" y2="93" stroke="#1e2448" stroke-width="1"/>
  <text x="955" y="110" fill="#94a3b8" font-family="monospace" font-size="10">PK id UUID</text>
  <text x="955" y="125" fill="#94a3b8" font-family="monospace" font-size="10">FK user_id UUID</text>
  <text x="955" y="140" fill="#94a3b8" font-family="monospace" font-size="10">name VARCHAR</text>
  <text x="955" y="155" fill="#94a3b8" font-family="monospace" font-size="10">config JSONB</text>

  <!-- Users 1---N Workflows -->
  <line x1="260" y1="270" x2="940" y2="120" stroke="#6366f1" stroke-width="1.5" marker-end="url(#arrow1)" opacity="0.5"/>
  <text x="530" y="260" fill="#f59e0b" font-family="monospace" font-size="9" font-weight="bold">1</text>
  <text x="810" y="120" fill="#f59e0b" font-family="monospace" font-size="9" font-weight="bold">N</text>

  <!-- ===================== WORKFLOW_NODES TABLE ===================== -->
  <rect x="940" y="190" width="220" height="85" rx="8" fill="#1a1f3a" stroke="#ec4899" stroke-width="1.5" filter="url(#shadow)"/>
  <rect x="940" y="190" width="220" height="28" rx="8" fill="url(#headerWork)"/>
  <rect x="940" y="210" width="220" height="8" fill="url(#headerWork)"/>
  <text x="1050" y="208" text-anchor="middle" fill="#fff" font-family="monospace" font-size="11" font-weight="bold">🔵 WorkflowNodes</text>
  <line x1="940" y1="218" x2="1160" y2="218" stroke="#1e2448" stroke-width="1"/>
  <text x="955" y="235" fill="#94a3b8" font-family="monospace" font-size="10">PK id UUID</text>
  <text x="955" y="250" fill="#94a3b8" font-family="monospace" font-size="10">FK workflow_id UUID</text>
  <text x="955" y="265" fill="#94a3b8" font-family="monospace" font-size="10">type VARCHAR</text>

  <!-- Workflows 1---N WorkflowNodes -->
  <line x1="1050" y1="165" x2="1050" y2="190" stroke="#ec4899" stroke-width="2" marker-end="url(#arrow1)"/>
  <text x="1032" y="172" fill="#f59e0b" font-family="monospace" font-size="9" font-weight="bold">1</text>
  <text x="1057" y="197" fill="#f59e0b" font-family="monospace" font-size="9" font-weight="bold">N</text>

  <!-- ===================== WORKFLOW_EDGES TABLE ===================== -->
  <rect x="940" y="295" width="220" height="85" rx="8" fill="#1a1f3a" stroke="#ec4899" stroke-width="1.5" filter="url(#shadow)"/>
  <rect x="940" y="295" width="220" height="28" rx="8" fill="url(#headerWork)"/>
  <rect x="940" y="315" width="220" height="8" fill="url(#headerWork)"/>
  <text x="1050" y="313" text-anchor="middle" fill="#fff" font-family="monospace" font-size="11" font-weight="bold">↔️ WorkflowEdges</text>
  <line x1="940" y1="323" x2="1160" y2="323" stroke="#1e2448" stroke-width="1"/>
  <text x="955" y="340" fill="#94a3b8" font-family="monospace" font-size="10">PK id UUID</text>
  <text x="955" y="355" fill="#94a3b8" font-family="monospace" font-size="10">FK workflow_id UUID</text>
  <text x="955" y="370" fill="#94a3b8" font-family="monospace" font-size="10">source_node_id UUID</text>

  <!-- Workflows 1---N WorkflowEdges -->
  <line x1="1050" y1="165" x2="1050" y2="295" stroke="#ec4899" stroke-width="2" marker-end="url(#arrow1)"/>
  <text x="1032" y="255" fill="#f59e0b" font-family="monospace" font-size="9" font-weight="bold">1</text>

  <!-- ===================== WORKFLOW_RUNS TABLE ===================== -->
  <rect x="940" y="400" width="220" height="85" rx="8" fill="#1a1f3a" stroke="#ec4899" stroke-width="1.5" filter="url(#shadow)"/>
  <rect x="940" y="400" width="220" height="28" rx="8" fill="url(#headerWork)"/>
  <rect x="940" y="420" width="220" height="8" fill="url(#headerWork)"/>
  <text x="1050" y="418" text-anchor="middle" fill="#fff" font-family="monospace" font-size="11" font-weight="bold">🏃 WorkflowRuns</text>
  <line x1="940" y1="428" x2="1160" y2="428" stroke="#1e2448" stroke-width="1"/>
  <text x="955" y="445" fill="#94a3b8" font-family="monospace" font-size="10">PK id UUID</text>
  <text x="955" y="460" fill="#94a3b8" font-family="monospace" font-size="10">FK workflow_id UUID</text>
  <text x="955" y="475" fill="#94a3b8" font-family="monospace" font-size="10">status ENUM</text>

  <!-- Workflows 1---N WorkflowRuns -->
  <line x1="1050" y1="165" x2="1050" y2="400" stroke="#ec4899" stroke-width="2" marker-end="url(#arrow1)"/>
  <text x="1032" y="375" fill="#f59e0b" font-family="monospace" font-size="9" font-weight="bold">1</text>

  <!-- ===================== MARKETPLACE_LISTINGS TABLE ===================== -->
  <rect x="40" y="510" width="220" height="100" rx="8" fill="#1a1f3a" stroke="#8b5cf6" stroke-width="1.5" filter="url(#shadow)"/>
  <rect x="40" y="510" width="220" height="28" rx="8" fill="url(#headerMrkt)"/>
  <rect x="40" y="530" width="220" height="8" fill="url(#headerMrkt)"/>
  <text x="150" y="528" text-anchor="middle" fill="#fff" font-family="monospace" font-size="11" font-weight="bold">🏪 MarketplaceListings</text>
  <line x1="40" y1="538" x2="260" y2="538" stroke="#1e2448" stroke-width="1"/>
  <text x="55" y="555" fill="#94a3b8" font-family="monospace" font-size="10">PK id UUID</text>
  <text x="55" y="570" fill="#94a3b8" font-family="monospace" font-size="10">FK user_id UUID</text>
  <text x="55" y="585" fill="#94a3b8" font-family="monospace" font-size="10">title VARCHAR</text>
  <text x="55" y="600" fill="#94a3b8" font-family="monospace" font-size="10">price DECIMAL</text>

  <!-- Users 1---N MarketplaceListings -->
  <line x1="150" y1="195" x2="150" y2="510" stroke="#6366f1" stroke-width="1.5" marker-end="url(#arrow1)" opacity="0.5"/>
  <text x="132" y="400" fill="#f59e0b" font-family="monospace" font-size="9" font-weight="bold">1</text>

  <!-- ===================== MARKETPLACE_REVIEWS TABLE ===================== -->
  <rect x="40" y="635" width="220" height="85" rx="8" fill="#1a1f3a" stroke="#8b5cf6" stroke-width="1.5" filter="url(#shadow)"/>
  <rect x="40" y="635" width="220" height="28" rx="8" fill="url(#headerMrkt)"/>
  <rect x="40" y="655" width="220" height="8" fill="url(#headerMrkt)"/>
  <text x="150" y="653" text-anchor="middle" fill="#fff" font-family="monospace" font-size="11" font-weight="bold">⭐ MarketplaceReviews</text>
  <line x1="40" y1="663" x2="260" y2="663" stroke="#1e2448" stroke-width="1"/>
  <text x="55" y="680" fill="#94a3b8" font-family="monospace" font-size="10">PK id UUID</text>
  <text x="55" y="695" fill="#94a3b8" font-family="monospace" font-size="10">FK listing_id UUID</text>
  <text x="55" y="710" fill="#94a3b8" font-family="monospace" font-size="10">rating INT</text>

  <!-- MarketplaceListings 1---N MarketplaceReviews -->
  <line x1="150" y1="610" x2="150" y2="635" stroke="#8b5cf6" stroke-width="2" marker-end="url(#arrow1)"/>
  <text x="132" y="618" fill="#f59e0b" font-family="monospace" font-size="9" font-weight="bold">1</text>
  <text x="157" y="642" fill="#f59e0b" font-family="monospace" font-size="9" font-weight="bold">N</text>

  <!-- ===================== NOTIFICATIONS TABLE ===================== -->
  <rect x="360" y="620" width="220" height="85" rx="8" fill="#1a1f3a" stroke="#6366f1" stroke-width="1.5" filter="url(#shadow)"/>
  <rect x="360" y="620" width="220" height="28" rx="8" fill="url(#headerCore)"/>
  <rect x="360" y="640" width="220" height="8" fill="url(#headerCore)"/>
  <text x="470" y="638" text-anchor="middle" fill="#fff" font-family="monospace" font-size="11" font-weight="bold">🔔 Notifications</text>
  <line x1="360" y1="648" x2="580" y2="648" stroke="#1e2448" stroke-width="1"/>
  <text x="375" y="665" fill="#94a3b8" font-family="monospace" font-size="10">PK id UUID</text>
  <text x="375" y="680" fill="#94a3b8" font-family="monospace" font-size="10">FK user_id UUID</text>
  <text x="375" y="695" fill="#94a3b8" font-family="monospace" font-size="10">message TEXT</text>

  <!-- Users 1---N Notifications -->
  <line x1="260" y1="170" x2="360" y2="650" stroke="#6366f1" stroke-width="1.5" marker-end="url(#arrow1)" opacity="0.35"/>
  <text x="257" y="460" fill="#f59e0b" font-family="monospace" font-size="9" font-weight="bold">1</text>
  <text x="345" y="650" fill="#f59e0b" font-family="monospace" font-size="9" font-weight="bold">N</text>

  <!-- ===================== AUDIT_LOGS TABLE ===================== -->
  <rect x="610" y="580" width="220" height="85" rx="8" fill="#1a1f3a" stroke="#6366f1" stroke-width="1.5" filter="url(#shadow)"/>
  <rect x="610" y="580" width="220" height="28" rx="8" fill="url(#headerCore)"/>
  <rect x="610" y="600" width="220" height="8" fill="url(#headerCore)"/>
  <text x="720" y="598" text-anchor="middle" fill="#fff" font-family="monospace" font-size="11" font-weight="bold">📝 AuditLogs</text>
  <line x1="610" y1="608" x2="830" y2="608" stroke="#1e2448" stroke-width="1"/>
  <text x="625" y="625" fill="#94a3b8" font-family="monospace" font-size="10">PK id UUID</text>
  <text x="625" y="640" fill="#94a3b8" font-family="monospace" font-size="10">FK user_id UUID</text>
  <text x="625" y="655" fill="#94a3b8" font-family="monospace" font-size="10">action VARCHAR</text>

  <!-- Users 1---N AuditLogs -->
  <line x1="260" y1="170" x2="610" y2="610" stroke="#6366f1" stroke-width="1.5" marker-end="url(#arrow1)" opacity="0.35"/>
  <text x="400" y="430" fill="#f59e0b" font-family="monospace" font-size="9" font-weight="bold">1</text>
  <text x="597" y="613" fill="#f59e0b" font-family="monospace" font-size="9" font-weight="bold">N</text>

  <!-- Legend -->
  <rect x="850" y="510" width="300" height="130" rx="10" fill="#1a1f3a" stroke="#2a2f4a" stroke-width="1" opacity="0.9"/>
  <text x="1000" y="533" text-anchor="middle" fill="#e2e8f0" font-family="monospace" font-size="11" font-weight="bold">LEGEND</text>
  <line x1="880" y1="540" x2="1120" y2="540" stroke="#2a2f4a" stroke-width="1"/>

  <rect x="870" y="553" width="12" height="12" rx="3" fill="url(#headerCore)"/>
  <text x="895" y="564" fill="#94a3b8" font-family="monospace" font-size="10">Core entities</text>

  <rect x="870" y="575" width="12" height="12" rx="3" fill="url(#headerAgent)"/>
  <text x="895" y="586" fill="#94a3b8" font-family="monospace" font-size="10">Agent-related</text>

  <rect x="870" y="597" width="12" height="12" rx="3" fill="url(#headerComm)"/>
  <text x="895" y="608" fill="#94a3b8" font-family="monospace" font-size="10">Communication / Tools</text>

  <rect x="870" y="619" width="12" height="12" rx="3" fill="url(#headerWork)"/>
  <text x="895" y="630" fill="#94a3b8" font-family="monospace" font-size="10">Workflow entities</text>

  <line x1="870" y1="618" x2="920" y2="618" stroke="#6366f1" stroke-width="2"/>
  <text x="895" y="621" fill="#94a3b8" font-family="monospace" font-size="10">1─N relationship</text>

</svg>